<svg xmlns="http://www.w3.org/2000/svg" viewBox="0 0 56 56" width="32px" height="32px" fill="currentColor">
  <path d="M15.757 49.548h24.486c4.6 0 6.654-2.148 7.331-6.723l3.478-23.413h.513c2.871 0 4.436-1.797 4.436-4.645V11.218c0-2.848-1.565-4.645-4.436-4.645H4.435C1.704 6.573 0 8.37 0 11.218v3.548c0 2.848 1.564 4.645 4.435 4.645h.537l3.455 23.413c.7 4.6 2.731 6.723 7.331 6.723zm.047-3.525c-2.1 0-3.291-.934-3.641-3.245L8.684 19.412h38.632l-3.478 23.366c-.327 2.311-1.564 3.245-3.642 3.245H15.803zm5.415-4.879c.49 0 .91-.233 1.237-.56l5.532-5.532 5.532 5.532c.327.304.747.56 1.26.56 1.015 0 1.809-.841 1.809-1.821 0-.537-.21-.91-.537-1.26l-5.509-5.509 5.532-5.58c.35-.373.537-.723.537-1.213 0-1.004-.794-1.798-1.798-.794-.443 0-.84.187-1.213.56l-5.579 5.532-5.556-5.509c-.35-.35-.723-.537-1.213-.537-1.015 0-1.832.77-1.832 1.75 0 .513.21.91.537 1.237l5.509 5.556-5.509 5.532c-.327.327-.537.724-.537 1.237 0 .98.794 1.821 1.798 1.821z"/>
</svg>