<svg xmlns="http://www.w3.org/2000/svg" viewBox="0 0 24 24" width="32px" height="32px" fill="none" stroke="currentColor" stroke-width="2" stroke-linecap="round" stroke-linejoin="round">
  <path d="M3 8.2c0-1.12 0-1.68.218-2.108a2 2 0 01.874-.874C4.52 5 5.08 5 6.2 5h3.475c.489 0 .734 0 .964.055.204.049.399.13.578.24.202.123.375.296.721.642l.125.126c.346.346.519.519.721.642.179.11.374.191.578.24.23.055.475.055.964.055h3.475c1.12 0 1.68 0 2.108.218a2 2 0 01.874.874C21 9.08 21 9.64 21 10.2v5.6c0 1.12 0 1.68-.218 2.108a2 2 0 01-.874.874C19.48 19 18.92 19 17.8 19H6.2c-1.12 0-1.68 0-2.108-.218a2 2 0 01-.874-.874C3 17.48 3 16.92 3 15.8V8.2z"/>
</svg>